<?xml version="1.0" encoding="UTF-8" standalone="no"?>
<svg
   version="1.0"
   width="640px"
   height="640px"
   viewBox="0 0 640 640"
   preserveAspectRatio="xMidYMid meet"
   id="svg143"
   sodipodi:docname="197683347_101031325563540_8822030352743346392_n.svg"
   inkscape:version="1.1 (c4e8f9e, 2021-05-24)"
   xmlns:inkscape="http://www.inkscape.org/namespaces/inkscape"
   xmlns:sodipodi="http://sodipodi.sourceforge.net/DTD/sodipodi-0.dtd"
   xmlns="http://www.w3.org/2000/svg"
   xmlns:svg="http://www.w3.org/2000/svg">
  <defs
     id="defs147">
    <rect
       x="171.62011"
       y="193.07263"
       width="271.73184"
       height="117.98883"
       id="rect1749" />
  </defs>
  <sodipodi:namedview
     id="namedview145"
     pagecolor="#ffffff"
     bordercolor="#666666"
     borderopacity="1.0"
     inkscape:pageshadow="2"
     inkscape:pageopacity="0.0"
     inkscape:pagecheckerboard="0"
     showgrid="false"
     inkscape:zoom="0.8390625"
     inkscape:cx="176.38734"
     inkscape:cy="327.74674"
     inkscape:window-width="1440"
     inkscape:window-height="900"
     inkscape:window-x="0"
     inkscape:window-y="0"
     inkscape:window-maximized="0"
     inkscape:current-layer="layer2" />
  <text
     xml:space="preserve"
     id="text1747"
     style="font-style:normal;font-weight:normal;font-size:40px;line-height:1.25;font-family:Chalkduster;white-space:pre;shape-inside:url(#rect1749);fill:#000000;fill-opacity:1;stroke:none;-inkscape-font-specification:Chalkduster;font-stretch:normal;font-variant:normal" />
  <text
     xml:space="preserve"
     style="font-style:normal;font-weight:normal;font-size:40px;line-height:1.25;font-family:Chalkduster;fill:#000000;fill-opacity:1;stroke:none;-inkscape-font-specification:Chalkduster;font-stretch:normal;font-variant:normal"
     x="594.71136"
     y="163.27747"
     id="text16391"><tspan
       sodipodi:role="line"
       id="tspan16389"
       x="594.71136"
       y="163.27747" /></text>
  <g
     inkscape:groupmode="layer"
     id="layer2"
     inkscape:label="Layer 1">
    <text
       xml:space="preserve"
       style="font-style:normal;font-variant:normal;font-weight:normal;font-stretch:normal;font-size:40px;line-height:1.25;font-family:'Savoye LET';-inkscape-font-specification:'Savoye LET';white-space:pre;inline-size:0;fill:#000000;fill-opacity:1;stroke:none"
       x="762.75604"
       y="266.96463"
       id="text19938"
       transform="matrix(1.7579582,0,0,1.7630738,-1173.952,-278.05358)"><tspan
         id="tspan19936"
         x="762.75604"
         y="266.96463"
         style="font-style:normal;font-variant:normal;font-weight:normal;font-stretch:normal;font-family:'Arial Rounded MT Bold';-inkscape-font-specification:'Arial Rounded MT Bold, '">TUAN</tspan></text>
  </g>
  <g
     fill="#000000"
     id="g121"
     transform="translate(2.3836127,2.383613)">
    <path
       d="m 175.6,498.6 c -7.9,-2.9 -15.5,-11.2 -17.5,-19.3 -0.7,-2.7 -1.1,-24.5 -1.1,-62.7 0,-57.3 0,-58.6 2.1,-64.2 2.5,-6.5 8.3,-12.9 14.4,-15.9 6.2,-3 20.4,-3.3 27.5,-0.6 9.7,3.7 16,11.3 18,21.6 0.8,4.2 1,23.7 0.8,63.5 -0.3,56 -0.4,57.6 -2.4,62.1 -2.9,6.3 -7.4,11 -13.1,13.9 -4,2.1 -6.4,2.5 -14.8,2.8 -6.7,0.1 -11.3,-0.3 -13.9,-1.2 z m 20.9,-14 c 2.4,-1.3 5.1,-4 7,-7 l 3,-4.9 0.3,-54.1 c 0.3,-61.1 0.5,-59.3 -7.3,-66.5 -5,-4.6 -9.8,-5.9 -15.7,-4.2 -4.9,1.5 -11.4,8.1 -12.8,13 -0.8,2.4 -1,21.9 -0.8,58.3 l 0.3,54.6 3,4.4 c 2,2.8 4.9,5.2 8.4,7 5.9,3 8,3 14.6,-0.6 z"
       id="path111" />
    <path
       d="m 261.5,497.6 c -5.8,-2.7 -10.7,-7.4 -13.8,-13.1 -2.2,-4 -2.2,-4 -2.5,-91 -0.2,-59.6 0,-88.6 0.8,-92 1.5,-7.2 7.2,-14.3 14.5,-18 5.4,-2.8 6.7,-3 15.9,-3 8.9,0.1 10.7,0.4 15.2,2.7 5.8,3 10.8,8.3 13.5,14.2 1.8,3.9 1.9,8.7 1.9,92.7 v 88.6 l -3,6 c -5.4,10.8 -13.6,15.2 -28,15.3 -7.9,0 -10.4,-0.4 -14.5,-2.4 z m 21,-11.9 c 1.1,-0.5 3.7,-2.5 5.7,-4.5 7.1,-6.8 6.9,-3.5 6.6,-92.8 L 294.5,308.5 292,304 c -3.1,-5.4 -9.3,-10 -14.6,-10.6 -5.6,-0.7 -13.4,4 -17.1,10.3 l -2.8,4.8 -0.3,79.4 c -0.3,89 -0.5,86.5 6.5,93.3 6.1,6 12.6,7.6 18.8,4.5 z"
       id="path113" />
    <path
       d="m 350.3,498.1 c -6.4,-3 -10.1,-6 -13.6,-11.5 l -3.2,-5.1 -0.3,-62 c -0.2,-46.8 0,-63.1 0.9,-66.5 0.9,-3.2 2.9,-6.1 6.8,-10.1 7.4,-7.3 13,-9.3 25,-8.7 10.4,0.5 16.5,3.1 22.2,9.7 6.9,7.8 6.9,7.3 6.9,73.7 0,57.2 -0.1,59.5 -2,64.8 -2.4,6.2 -8.6,12.6 -15.3,15.7 -5.9,2.6 -21.5,2.6 -27.4,0 z m 17.8,-11.6 c 5.2,-1.9 9.3,-5.5 12.2,-11 2.2,-4 2.2,-4.6 2.2,-58.5 V 362.5 L 380,358 c -3.2,-5.6 -10.8,-11 -15.7,-11 -7.4,0 -15.7,6.9 -18.1,14.9 -1.6,5.2 -1.7,104.9 -0.1,110.5 1.4,5 8.3,12.3 13.4,14.1 2.2,0.8 4.1,1.4 4.1,1.5 0.1,0 2.1,-0.7 4.5,-1.5 z"
       id="path115" />
    <path
       d="m 439.5,498.8 c -9,-3.3 -16.6,-11.9 -18.5,-21.1 -0.7,-3.6 -1,-41.3 -0.8,-124.2 l 0.3,-119 2.3,-4.7 c 3.1,-6.1 8.5,-11.6 14.1,-14.2 3.8,-1.7 6.5,-2.1 15.1,-2.1 9.8,0 10.9,0.2 15.9,3 2.9,1.6 6.9,5 8.8,7.4 6.7,8.8 6.4,2 6.1,135.2 l -0.3,120.4 -2.7,5.1 c -2.8,5.4 -7.7,10.2 -13.1,13.1 -3.9,2.1 -22.5,2.9 -27.2,1.1 z m 20,-14.2 c 2.1,-1.1 5.3,-4.1 7,-6.4 l 3,-4.4 0.3,-115.9 C 470,243.4 470,241.9 468,238 c -3.3,-6.5 -10.8,-12 -16.5,-12 -3.4,0 -9.3,3.1 -12.7,6.7 -6.1,6.4 -5.8,-0.5 -5.8,123.6 0,82.1 0.3,114.3 1.1,116.8 2.4,6.9 7.4,11.7 14.9,14 3,0.9 5.3,0.4 10.5,-2.5 z"
       id="path117" />
    <path
       d="m 177.5,304.1 c -4.7,-2.2 -8.9,-6.4 -10.4,-10.4 -0.6,-1.6 -1.1,-6.5 -1.1,-11.1 0,-7.4 0.3,-8.7 2.9,-12.9 4.3,-6.6 8.9,-8.7 19.5,-8.7 4.7,0 9.6,0.5 11,1.1 2.2,1 3.2,0.8 7.3,-1.8 2.6,-1.7 14.1,-8.7 25.4,-15.7 l 20.6,-12.6 0.6,-5.4 c 0.9,-8.7 5.2,-15.3 12,-18.1 2.1,-0.9 6.7,-1.5 11,-1.5 13.4,0 21.3,6.7 22.4,18.8 l 0.6,6.1 12.1,7.4 c 6.6,4.1 18.1,11.1 25.5,15.6 12.4,7.6 13.6,8.1 16.4,7.2 1.6,-0.6 5.5,-1.1 8.6,-1.1 h 5.6 l 23,-31.7 c 39.8,-54.8 40.4,-55.6 39.4,-57.5 -1.4,-2.7 -1.1,-16.2 0.6,-20.1 1.9,-4.5 8.9,-10.5 13.2,-11.3 1.8,-0.3 6.6,-0.5 10.6,-0.2 9.2,0.4 14.4,3.4 17.7,10.3 1.9,3.9 2.1,5.8 1.8,13.4 -0.3,8.2 -0.6,9.2 -3.4,12.8 -4.2,5.3 -10.5,8.3 -17.4,8.3 l -5.5,0.1 -27.7,38.2 c -39.3,54.1 -35.1,47.4 -33.7,53.7 1.2,5.8 0.5,13.9 -1.6,18 -2,3.8 -7.7,8.6 -12.1,10 -5.2,1.8 -17.3,0.8 -21.5,-1.6 -5.5,-3.2 -9,-9.1 -9.6,-16.2 l -0.6,-6.2 -20.1,-12.4 c -11,-6.8 -22.5,-13.8 -25.4,-15.7 -4.9,-3 -5.6,-3.2 -8.6,-2.1 -4.1,1.5 -15.7,1.5 -20.6,0.1 l -3.8,-1.2 -25.6,15.8 -25.6,15.7 v 4.7 c -0.1,8.4 -4.7,15.4 -12.2,18.6 -5.2,2.1 -16.3,1.9 -21.3,-0.4 z m 15.1,-13 c 1.7,-1 3.7,-3.3 4.4,-5.1 1.7,-4 0.2,-7.3 -4.8,-10.7 -2.8,-1.8 -3.8,-2 -6.2,-1.1 -3.7,1.2 -7,5.7 -7,9.3 0,3.2 5.8,9.5 8.7,9.5 1,0 3.2,-0.9 4.9,-1.9 z m 176.8,-1.3 c 1.9,-1.8 3.7,-4.2 4,-5.3 0.8,-2.7 -2.6,-8 -6.4,-10 -2.6,-1.4 -3.3,-1.4 -5.8,-0.1 -8.2,4.2 -9,11.8 -1.6,16.6 4,2.7 5.9,2.5 9.8,-1.2 z m -88.8,-52.4 c 4,-2.7 5.8,-7 4.3,-10.5 -1.4,-3.5 -5.8,-6.9 -8.8,-6.9 -3.3,0 -7.2,3 -8.8,6.8 -1.3,3 -1.2,3.6 0.6,6.6 3.3,5.4 8.2,6.9 12.7,4 z m 177,-68.8 c 2.1,-2.1 3.4,-4.4 3.4,-5.9 0,-2.9 -4.3,-8.5 -7.4,-9.7 -4.2,-1.5 -11.6,4.7 -11.6,9.8 0,3.2 6.2,9.2 9.7,9.2 1.5,0 3.8,-1.3 5.9,-3.4 z"
       id="path119" />
  </g>
</svg>
